<?xml version="1.0" encoding="UTF-8"?>
<svg xmlns="http://www.w3.org/2000/svg" width="32" height="32" viewBox="0 0 32 32">
  <defs>
    <clipPath id="favicon-clip">
      <rect width="32" height="32" rx="6" ry="6"/>
    </clipPath>
  </defs>
  <g clip-path="url(#favicon-clip)">
    <rect width="32" height="32" fill="#ffffff"/>
    <rect x="0.75" y="0.75" width="30.5" height="30.5" rx="5.25" ry="5.25" fill="none" stroke="#d4d4d4" stroke-width="1.5"/>
    <svg x="4.8" y="4.8" width="22.4" height="22.4" viewBox="0 0 96 96">
      <path d="m77.08 28.577 5.748-5.748-5.656-5.658-6.149 6.149A39.747 39.747 0 0 0 52 16.2V8h8V0H36v8h8v8.2a39.747 39.747 0 0 0-19.023 7.12l-6.149-6.149-5.656 5.658 5.748 5.748a40 40 0 1 0 58.16 0zM48 88a32 32 0 1 1 32-32 32.036 32.036 0 0 1-32 32z" fill="#10b981"/>
      <path d="M48 32v24H24a24 24 0 1 0 24-24z" fill="#10b981"/>
    </svg>
  </g>
</svg>
