<?xml version="1.0" encoding="UTF-8"?>
<svg xmlns="http://www.w3.org/2000/svg" width="512" height="512" viewBox="0 0 96 96">
  <defs>
    <linearGradient id="vibe-green" x1="10" y1="0" x2="86" y2="96" gradientUnits="userSpaceOnUse">
      <stop offset="0%" stop-color="#6ee7b7"/>
      <stop offset="45%" stop-color="#10b981"/>
      <stop offset="100%" stop-color="#047857"/>
    </linearGradient>
  </defs>
  <path d="m77.08 28.577 5.748-5.748-5.656-5.658-6.149 6.149A39.747 39.747 0 0 0 52 16.2V8h8V0H36v8h8v8.2a39.747 39.747 0 0 0-19.023 7.12l-6.149-6.149-5.656 5.658 5.748 5.748a40 40 0 1 0 58.16 0zM48 88a32 32 0 1 1 32-32 32.036 32.036 0 0 1-32 32z" fill="url(#vibe-green)"/>
  <path d="M48 32v24H24a24 24 0 1 0 24-24z" fill="url(#vibe-green)"/>
</svg>
